<?xml version="1.0" encoding="UTF-8"?>
<svg width="23px" height="22px" viewBox="0 0 23 22" version="1.1" xmlns="http://www.w3.org/2000/svg" xmlns:xlink="http://www.w3.org/1999/xlink">
    <!-- Generator: sketchtool 55.2 (78181) - https://sketchapp.com -->
    <title>75F35DC2-CA1A-41D7-8280-DB20BB578479@2x</title>
    <desc>Created with sketchtool.</desc>
    <g id="Page-1" stroke="none" stroke-width="1" fill="none" fill-rule="evenodd">
        <g id="Playbooks---New-Playbook" transform="translate(-541.000000, -719.000000)" fill-rule="nonzero" stroke="#676D72" stroke-width="2">
            <g id="Icons" transform="translate(481.000000, 616.000000)">
                <g id="icon1-copy-3" transform="translate(54.000000, 96.000000)">
                    <path d="M24.9388115,19.5659212 L25.6336911,21.7810299 L24.1143571,22.21228 L24.0446768,23.2185691 L22.9348775,23.1488857 L22.8540558,24.3160745 L21.8954706,24.2483621 L21.2791926,25.6450312 L18.866371,24.8136336 L18.264925,25.6890788 L16.1567599,24.5016422 L15.5639944,24.684681 L14.214876,25.1082312 L14.214876,25.0625209 L12.9790161,25.421621 L12.6974782,24.4493562 L11.9958916,24.7010823 L11.4841639,23.5904686 L10.2042704,23.5195596 L10.417549,21.259729 L8.4332372,20.1591546 L8.8279911,19.4155663 L7.88634452,18.9277832 L8.65729289,17.5540647 L7.53921845,16.2824634 L9.72943268,14.6207419 L9.82038044,14.7235316 L9.04860941,13.5726333 L10.8099174,12.6049612 L10.8099174,10.2028584 L12.5947898,10.2231122 L13.4408295,8.68775267 L15.8303161,9.84045233 L17.7362857,8.78365114 L18.2257589,9.59040881 L18.4106023,9.24222393 L19.3112453,9.73704207 L21.2503344,8.86737181 L21.9510049,10.4071804 L23.6694215,10.4656793 L23.6694215,12.152698 L23.8559635,12.257657 L24.8308721,12.3188708 L24.7329386,13.666956 L26.3412599,14.2866379 L25.0710889,17.14231 L25.9729117,19.1383313 L24.9388115,19.5659212 Z M11.9551384,17.2264759 L12.457788,16.2985837 L11.5785124,15.8222703 L10.6462119,15.4605856 C10.2614125,16.4524683 10.2349852,17.4829211 10.5358149,18.515062 L11.4958678,18.2352432 L12.2622415,17.5928483 L11.9551384,17.2264759 Z M12.2270296,20.5198354 L12.0743802,20.6170811 L11.9441706,21.3478337 L11.9195767,21.368449 L11.9368297,21.3890318 L11.8989577,21.6015743 L12.1529204,21.6468268 L12.4154444,21.9600166 L13.1818182,21.3176216 L13.6891029,20.4558431 L12.6312517,19.8331404 L12.2270296,20.5198354 Z M12.8822715,20.9526697 L12.7385088,20.9427137 L12.7332538,21.0185947 L12.338843,21.1930811 L11.8454508,22.0628881 L13.2999963,22.8879692 L13.8624757,21.0205515 L13.3399968,20.9843684 L13.2533479,20.7885064 L12.8822715,20.9526697 Z M16.1921945,18.4460341 C15.2760683,18.2553476 14.0965704,18.5845758 14.034671,18.7953931 C14.0290041,18.817454 14.1285987,19.0235401 14.4164969,19.2912467 C14.780315,19.6295486 15.2909679,19.9064233 15.7425519,20.0060392 C16.4610544,20.1889346 17.081559,19.9017653 17.1884695,19.5120663 C17.2846401,19.137681 16.9071715,18.6345297 16.1921945,18.4460341 Z M14.0578512,12.5569421 L14.3981676,12.7195416 L14.5469279,12.4081902 L14.0578512,12.1745147 L14.0578512,11.9770811 L13.5732335,11.102355 L13.0112501,11.4137064 L13.4958678,12.2884324 L13.6446281,12.3595085 L13.6446281,12.9770811 L14.0578512,12.9770811 L14.0578512,12.5569421 Z M17.1603258,13.1789867 C16.8881166,13.0406477 15.805116,13.61871 15.3537617,14.3570017 C15.0122438,14.9072001 15.1223224,15.4819267 15.5136149,15.69255 C15.9288344,15.9200814 16.6040057,15.6907397 16.9540838,15.1026406 C17.3750668,14.4060906 17.3664965,13.3047622 17.1603258,13.1789867 Z M21.2337893,17.3939737 C20.9374505,16.5962297 19.9972818,15.8483478 19.6980114,15.9453315 C19.452181,16.0277413 19.2203558,17.1060137 19.4949351,17.8818706 C19.7143361,18.493181 20.3272285,18.8348688 20.7875927,18.6808431 C21.2138108,18.5492273 21.4471169,17.993787 21.2337888,17.3939749 Z M21.2337888,17.3939749 C21.2333073,17.3926212 21.2328236,17.3912673 21.2323376,17.3899131 L21.2352847,17.3980146 C21.2347881,17.3966675 21.2342896,17.3953205 21.2337893,17.3939737 Z M20.8310507,22.009226 L20.8653765,21.471654 L19.8901699,21.4093838 L19.8264463,22.4073514 L20.0983522,23.3696752 L21.255377,23.0427563 L20.9834711,22.0804324 L20.8310507,22.009226 Z M19.8934045,12.5046077 L19.8742292,13.0543111 L20.1442426,13.0637299 L20.3851314,13.6006751 L21.2975207,13.1913514 L22.0511589,12.534062 C21.6307777,12.0520591 21.076227,11.6069713 20.4408499,11.2080232 L19.9090909,12.0549189 L19.8937974,12.4933438 L19.8892637,12.4953778 L19.8934045,12.5046077 Z M22.3813029,20.4614054 L22.2584115,19.9394836 L22.0600644,19.9861863 L22.1719592,20.4614054 L21.4876033,20.4614054 L21.4876033,20.9128649 L22.2782596,20.9128649 L22.2892562,20.9595676 L23.2183219,21.3294823 L23.416669,20.8313201 L22.4876033,20.4614054 L22.3813029,20.4614054 Z" id="icon-nest"></path>
                </g>
            </g>
        </g>
    </g>
</svg>