<?xml version="1.0" encoding="UTF-8"?>
<svg width="58px" height="64px" viewBox="0 0 58 64" version="1.1" xmlns="http://www.w3.org/2000/svg" xmlns:xlink="http://www.w3.org/1999/xlink">
    <!-- Generator: sketchtool 55.2 (78181) - https://sketchapp.com -->
    <title>A60A45C0-AF5A-440C-982C-12C21BA7713A</title>
    <desc>Created with sketchtool.</desc>
    <g id="Page-1" stroke="none" stroke-width="1" fill="none" fill-rule="evenodd">
        <g id="Customer-Team" transform="translate(-837.000000, -264.000000)" fill-rule="nonzero">
            <g id="Content" transform="translate(441.000000, 80.000000)">
                <g id="Basic-Information" transform="translate(0.000000, 160.000000)">
                    <g id="Content" transform="translate(87.383178, 24.000000)">
                        <g id="vest-sport" transform="translate(308.820093, 0.000000)">
                            <path d="M55.7722002,64 L1.36029757,64 C0.609413309,64 0,63.378087 0,62.6086957 L0,23.6521739 C0,23.314087 0.121066483,22.9857391 0.340074391,22.7325217 C5.38405776,16.8765217 8.16178539,9.29808696 8.16178539,1.39130435 C8.16178539,0.621913043 8.7711987,0 9.52208296,0 L17.6838683,0 C18.4347526,0 19.0441659,0.621913043 19.0441659,1.39130435 C19.0441659,6.76034783 23.3155003,11.1304348 28.5662489,11.1304348 C33.8169975,11.1304348 38.0883318,6.76034783 38.0883318,1.39130435 C38.0883318,0.621913043 38.6977451,0 39.4486294,0 L47.6104148,0 C48.361299,0 48.9707123,0.621913043 48.9707123,1.39130435 C48.9707123,9.29808696 51.74844,16.8765217 56.7924233,22.7325217 C57.0114313,22.9857391 57.1324977,23.314087 57.1324977,23.6521739 L57.1324977,62.6086957 C57.1324977,63.378087 56.5230844,64 55.7722002,64 Z" id="Shape" fill="#F57059"></path>
                            <rect id="Rectangle-path" fill="#FFC106" x="0" y="54.2608696" width="57.1324977" height="2.7826087"></rect>
                            <path d="M32.36556,33.1895652 C33.3762611,32.178087 34.0074391,30.7742609 34.0074391,29.2173913 C34.0074391,26.1481739 31.5670653,23.6521739 28.5662489,23.6521739 C25.5654324,23.6521739 23.1250586,26.1481739 23.1250586,29.2173913 C23.1250586,30.7742609 23.7562367,32.178087 24.7669378,33.1895652 C22.9563817,34.4417391 21.764761,36.5593043 21.764761,38.9565217 C21.764761,42.7923478 24.8159085,45.9130435 28.5662489,45.9130435 C32.3165893,45.9130435 35.3677367,42.7923478 35.3677367,38.9565217 C35.3677367,36.5593043 34.176116,34.4417391 32.36556,33.1895652 Z M25.8456537,29.2173913 C25.8456537,27.6827826 27.0658407,26.4347826 28.5662489,26.4347826 C30.0666571,26.4347826 31.286844,27.6827826 31.286844,29.2173913 C31.286844,30.752 30.0666571,32 28.5662489,32 C27.0658407,32 25.8456537,30.752 25.8456537,29.2173913 Z M28.5662489,43.1304348 C26.3163167,43.1304348 24.4853562,41.2577391 24.4853562,38.9565217 C24.4853562,36.6553043 26.3163167,34.7826087 28.5662489,34.7826087 C30.816181,34.7826087 32.6471416,36.6553043 32.6471416,38.9565217 C32.6471416,41.2577391 30.816181,43.1304348 28.5662489,43.1304348 Z" id="Shape" fill="#FFFFFF"></path>
                        </g>
                    </g>
                </g>
            </g>
        </g>
    </g>
</svg>