<svg xmlns="http://www.w3.org/2000/svg" width="20" height="20" viewBox="0 0 20 20">
  <path fill="#676D72" d="M26.3197656,13.4264062 C26.1362891,13.2747266 21.9555859,9.91273437 21.0365234,9.18199219 C20.1730859,8.49183594 18.6967578,7 17,7 C15.3123047,7 13.8501563,8.47332031 12.9634766,9.18199219 C12.0078906,9.94175781 7.84355469,13.2911719 7.68417969,13.4221875 C7.25102303,13.7783659 7,14.3097157 7,14.8705078 L7,25.125 C7,26.1605469 7.83945313,27 8.875,27 L25.125,27 C26.1605469,27 27,26.1605469 27,25.125 L27,14.8714453 C27,14.3124481 26.75058,13.7826039 26.3197656,13.4264062 Z M25,24.7692308 C25,24.8966811 24.896681,25 24.7692307,25 L9.23076923,25 C9.1033189,25 9,24.8966811 9,24.7692308 L9,15.0133462 C9,14.9436154 9.03138462,14.8777308 9.08561538,14.8339231 C9.696,14.3410769 13.2699615,11.4664615 14.1765384,10.7457308 C14.8751923,10.1876923 16.0922307,9 17,9 C17.9112692,9 19.1483461,10.2065 19.8234615,10.7457308 C20.7301153,11.4665385 24.3043461,14.3416154 24.9144615,14.8348077 C24.968614,14.8785897 25,14.9445165 25,15.0141538 L25,24.7692308 Z M23.8927814,17.9004572 C24.0591799,18.1032925 24.0284771,18.4035153 23.8244441,18.5680954 C22.689731,19.4835078 21.5031677,20.4394558 21.046737,20.803765 C20.1578034,21.5170893 18.6919381,23 16.9999527,23 C15.2982942,23 13.8166076,21.4966445 12.9531683,20.803765 C12.5114624,20.4512115 11.3183983,19.4900737 10.1755395,18.5680167 C9.97150658,18.4033974 9.94084289,18.1032138 10.1072022,17.9003786 L10.7047329,17.1719174 C10.8683509,16.9724634 11.161242,16.9421895 11.3618287,17.1040567 C12.482561,18.0083818 13.6553785,18.9533211 14.1250851,19.3282459 C14.8124922,19.879467 16.0720922,21.1127949 16.9999527,21.1127949 C17.9242494,21.1127949 19.1634853,19.8986929 19.8748202,19.3282459 C20.3445268,18.9533604 21.5174226,18.0083818 22.6381941,17.1041746 C22.8387808,16.9423468 23.1316719,16.9726207 23.2952507,17.1720747 L23.8927814,17.9004572 Z" transform="translate(-7 -7)"/>
</svg>
