<?xml version="1.0" encoding="UTF-8"?>
<svg width="46px" height="45px" viewBox="0 0 46 45" version="1.1" xmlns="http://www.w3.org/2000/svg" xmlns:xlink="http://www.w3.org/1999/xlink">
    <!-- Generator: sketchtool 55.2 (78181) - https://sketchapp.com -->
    <title>70CEBA5D-77EA-47CD-A297-9597F500AAB3</title>
    <desc>Created with sketchtool.</desc>
    <g id="Page-1" stroke="none" stroke-width="1" fill="none" fill-rule="evenodd">
        <g id="Wizard---Form-Submission---animated-graphic" transform="translate(-854.000000, -163.000000)" fill-rule="nonzero">
            <g id="Rows" transform="translate(854.000000, 128.000000)">
                <g id="Stacked-Group-3" transform="translate(0.000000, 35.000000)">
                    <g id="Icon---5">
                        <path d="M22,28 C21.9951562,27.1115433 21.404778,26.3327914 20.5506415,26.0881904 C19.696505,25.8435894 18.7834002,26.1917855 18.309,26.943 L16,30.773 L16,16 C16,14.8954305 15.1045695,14 14,14 C12.8954305,14 12,14.8954305 12,16 L12,14 C12,12.8954305 11.1045695,12 10,12 C8.8954305,12 8,12.8954305 8,14 C8,12.8954305 7.1045695,12 6,12 C4.8954305,12 4,12.8954305 4,14 L4,17 C4,15.8954305 3.1045695,15 2,15 C0.8954305,15 -6.26479869e-05,15.8954305 -6.26479869e-05,17 L-6.26479869e-05,34.883 C-0.00777734704,36.7558937 0.708844529,38.5592727 2,39.916 L2,44 C2,44.5522847 2.44771525,45 3,45 L14,45 C14.5522847,45 15,44.5522847 15,44 L15,40 C18.562,37.062 21.884,28.649 21.89,28.625 C21.9603223,28.4240117 21.9974743,28.2129205 22,28 Z" id="Shape" fill="#FFC106"></path>
                        <path d="M12,27 C11.4477153,27 11,26.5522847 11,26 L11,17 C11,16.4477153 11.4477153,16 12,16 C12.5522847,16 13,16.4477153 13,17 L13,26 C13,26.5522847 12.5522847,27 12,27 Z" id="Shape" fill="#292934" opacity="0.25"></path>
                        <path d="M8,27 C7.44771525,27 7,26.5522847 7,26 L7,15 C7,14.4477153 7.44771525,14 8,14 C8.55228475,14 9,14.4477153 9,15 L9,26 C9,26.5522847 8.55228475,27 8,27 Z" id="Shape" fill="#292934" opacity="0.25"></path>
                        <path d="M4,28 C3.44771525,28 3,27.5522847 3,27 L3,18 C3,17.4477153 3.44771525,17 4,17 C4.55228475,17 5,17.4477153 5,18 L5,27 C5,27.5522847 4.55228475,28 4,28 Z" id="Shape" fill="#292934" opacity="0.25"></path>
                        <path d="M10,36 C9.47998062,36.0019714 9.04523827,35.6050517 9,35.087 C8.87662046,33.4110162 9.48750351,31.7641135 10.674,30.574 C11.8548335,29.4483447 13.4613951,28.8826078 15.087,29.02 C15.4493282,29.0443146 15.7699985,29.2631426 15.9247278,29.5916723 C16.0794572,29.920202 16.0439242,30.3067929 15.8319005,30.601613 C15.6198768,30.8964331 15.2646898,31.0531406 14.904,31.011 C13.8419947,30.913283 12.7915207,31.2928054 12.0372043,32.0467354 C11.2828878,32.8006654 10.9028272,33.8509448 11,34.913 C11.0241054,35.1784358 10.9412509,35.442512 10.7698309,35.6466013 C10.5984109,35.8506906 10.3526107,35.9779044 10.087,36 C10.0580179,36.0014393 10.0289821,36.0014393 10,36 Z" id="Shape" fill="#292934" opacity="0.25"></path>
                        <path d="M24,28 C24.0048438,27.1115433 24.595222,26.3327914 25.4493585,26.0881904 C26.303495,25.8435894 27.2165998,26.1917855 27.691,26.943 L30,30.773 L30,16 C30,14.8954305 30.8954305,14 32,14 C33.1045695,14 34,14.8954305 34,16 L34,14 C34,12.8954305 34.8954305,12 36,12 C37.1045695,12 38,12.8954305 38,14 C38,12.8954305 38.8954305,12 40,12 C41.1045695,12 42,12.8954305 42,14 L42,17 C42,15.8954305 42.8954305,15 44,15 C45.1045695,15 46.0000626,15.8954305 46.0000626,17 L46.0000626,34.883 C46.0077773,36.7558937 45.2911555,38.5592727 44,39.916 L44,44 C44,44.5522847 43.5522847,45 43,45 L32,45 C31.4477153,45 31,44.5522847 31,44 L31,40 C27.437,37.063 24.116,28.649 24.11,28.625 C24.0396777,28.4240117 24.0025257,28.2129205 24,28 Z" id="Shape" fill="#FFC106"></path>
                        <path d="M34,27 C34.5522847,27 35,26.5522847 35,26 L35,17 C35,16.4477153 34.5522847,16 34,16 C33.4477153,16 33,16.4477153 33,17 L33,26 C33,26.5522847 33.4477153,27 34,27 Z" id="Shape" fill="#292934" opacity="0.25"></path>
                        <path d="M38,27 C38.5522847,27 39,26.5522847 39,26 L39,15 C39,14.4477153 38.5522847,14 38,14 C37.4477153,14 37,14.4477153 37,15 L37,26 C37,26.5522847 37.4477153,27 38,27 Z" id="Shape" fill="#292934" opacity="0.25"></path>
                        <path d="M42,28 C42.5522847,28 43,27.5522847 43,27 L43,18 C43,17.4477153 42.5522847,17 42,17 C41.4477153,17 41,17.4477153 41,18 L41,27 C41,27.5522847 41.4477153,28 42,28 Z" id="Shape" fill="#292934" opacity="0.25"></path>
                        <path d="M36,36 C36.5200194,36.0019714 36.9547617,35.6050517 37,35.087 C37.1233795,33.4110162 36.5124965,31.7641135 35.326,30.574 C34.1451665,29.4483447 32.5386049,28.8826078 30.913,29.02 C30.5506718,29.0443146 30.2300015,29.2631426 30.0752722,29.5916723 C29.9205428,29.920202 29.9560758,30.3067929 30.1680995,30.601613 C30.3801232,30.8964331 30.7353102,31.0531406 31.096,31.011 C32.1580053,30.913283 33.2084793,31.2928054 33.9627957,32.0467354 C34.7171122,32.8006654 35.0971728,33.8509448 35,34.913 C34.9758946,35.1784358 35.0587491,35.442512 35.2301691,35.6466013 C35.4015891,35.8506906 35.6473893,35.9779044 35.913,36 C35.9419821,36.0014393 35.9710179,36.0014393 36,36 Z" id="Shape" fill="#292934" opacity="0.25"></path>
                        <path d="M24,-8.90841978e-09 L22,-8.90841978e-09 C21.7099833,-8.90841978e-09 21.4342349,0.125831596 21.2442649,0.3449687 C21.0542949,0.564105804 20.9688176,0.854922169 21.01,1.142 L22.01,8.142 C22.0802214,8.63480832 22.5022138,9.00093264 23,9.00093264 C23.4977862,9.00093264 23.9197786,8.63480832 23.99,8.142 L24.99,1.142 C25.0311824,0.854922169 24.9457051,0.564105804 24.7557351,0.3449687 C24.5657651,0.125831596 24.2900167,-8.90841978e-09 24,-8.90841978e-09 Z" id="Shape" fill="#009DDA"></path>
                        <path d="M14.717,2.667 C14.6205607,2.39379806 14.4103734,2.17585075 14.1408458,2.06957436 C13.8713181,1.96329796 13.5689462,1.97914011 13.312,2.113 L11.538,3.038 C11.2807353,3.17185142 11.0942481,3.41079325 11.0268961,3.692866 C10.959544,3.97493874 11.0179613,4.27235777 11.187,4.508 L15.312,10.252 C15.4999433,10.513919 15.8026272,10.6691701 16.125,10.6690001 C16.4494087,10.6686994 16.7535139,10.5110489 16.9407355,10.2461165 C17.127957,9.98118407 17.1750283,9.64189377 17.067,9.336 L14.717,2.667 Z" id="Shape" fill="#009DDA"></path>
                        <path d="M34.973,3.693 C34.9057065,3.41089683 34.7192555,3.17190382 34.462,3.038 L32.688,2.113 C32.4310538,1.97914011 32.1286819,1.96329796 31.8591542,2.06957436 C31.5896266,2.17585075 31.3794393,2.39379806 31.283,2.667 L28.933,9.336 C28.7679279,9.80514598 28.9727089,10.3243018 29.4136069,10.5544229 C29.8545049,10.784544 30.3975089,10.6556851 30.688,10.252 L34.812,4.508 C34.98131,4.27253296 35.0400549,3.97515999 34.973,3.693 Z" id="Shape" fill="#009DDA"></path>
                    </g>
                </g>
            </g>
        </g>
    </g>
</svg>