<?xml version="1.0" encoding="UTF-8"?>
<svg width="44px" height="48px" viewBox="0 0 44 48" version="1.1" xmlns="http://www.w3.org/2000/svg" xmlns:xlink="http://www.w3.org/1999/xlink">
    <!-- Generator: sketchtool 55.2 (78181) - https://sketchapp.com -->
    <title>86FBC203-0759-44A9-A0A2-CBBEF0E87F05</title>
    <desc>Created with sketchtool.</desc>
    <g id="Page-1" stroke="none" stroke-width="1" fill="none" fill-rule="evenodd">
        <g id="Wizard---Timeline" transform="translate(-855.000000, -162.000000)">
            <g id="Rows" transform="translate(854.000000, 128.000000)">
                <g id="Stacked-Group-3" transform="translate(0.000000, 34.000000)">
                    <g id="Icon---8" transform="translate(1.000000, 0.000000)">
                        <path d="M33.999995,15.500005 C33.61621,15.500005 33.23242,15.35352 32.93945,15.06055 C32.35351,14.4751 32.35351,13.52491 32.93945,12.93946 L36.93945,8.93946 C37.52539,8.35352 38.47461,8.35352 39.06054,8.93946 C39.64648,9.52491 39.64648,10.4751 39.06054,11.06055 L35.06054,15.06055 C34.76758,15.35352 34.38379,15.500005 33.999995,15.500005 Z" id="Shape" fill="#292934" fill-rule="nonzero"></path>
                        <circle id="Oval" fill="#FFFFFF" fill-rule="nonzero" cx="22" cy="28" r="18"></circle>
                        <polygon id="Path-4" fill="#E86C60" points="22 9.5 22 28 39.499995 27.9142144 35.06054 15.06055"></polygon>
                        <path d="M22,48 C10.97217,48 2,39.02783 2,28 C2,16.97217 10.97217,8 22,8 C33.02783,8 42,16.97217 42,28 C42,39.02783 33.02783,48 22,48 Z M22,12 C13.17773,12 6,19.17773 6,28 C6,36.82227 13.17773,44 22,44 C30.82227,44 38,36.82227 38,28 C38,19.17773 30.82227,12 22,12 Z" id="Shape" fill="#292934" fill-rule="nonzero"></path>
                        <path d="M22,10 C19.24316,10 17,7.75684 17,5 C17,2.24316 19.24316,0 22,0 C24.75684,0 27,2.24316 27,5 C27,7.75684 24.75684,10 22,10 Z M22,2 C20.3457,2 19,3.3457 19,5 C19,6.6543 20.3457,8 22,8 C23.6543,8 25,6.6543 25,5 C25,3.3457 23.6543,2 22,2 Z" id="Shape" fill="#292934" fill-rule="nonzero"></path>
                        <path d="M22.1360413,29.7426456 C22.9170913,28.9615956 32.0355413,22.6715756 32.0355413,22.6715756 C32.0355413,22.6715756 25.7455213,31.7900256 24.9644713,32.5710656 C24.1834213,33.3521156 22.9170913,33.3521156 22.1360413,32.5710656 C21.3549913,31.7900256 21.3549913,30.5236856 22.1360413,29.7426456 Z" id="Shape" fill="#292934" fill-rule="nonzero" transform="translate(26.792898, 27.914214) rotate(-315.000000) translate(-26.792898, -27.914214) "></path>
                        <path d="M40.17157,14.8995 L33.1005,7.82843 C32.70997,7.43791 32.70997,6.80474 33.1005,6.41422 L35.22182,4.2929 C35.61235,3.90238 36.24551,3.90238 36.63604,4.2929 L43.70711,11.36397 C44.09763,11.75449 44.09763,12.38766 43.70711,12.77818 L41.58579,14.8995 C41.19526,15.29002 40.5621,15.29002 40.17157,14.8995 Z" id="Shape" fill="#292934" fill-rule="nonzero"></path>
                        <path d="M9.999995,15.500005 C9.61621,15.500005 9.23242,15.35352 8.93945,15.06055 L4.93945,11.06055 C4.35351,10.4751 4.35351,9.52491 4.93945,8.93946 C5.52539,8.35352 6.47461,8.35352 7.06054,8.93946 L11.06054,12.93946 C11.64648,13.52491 11.64648,14.4751 11.06054,15.06055 C10.76758,15.35352 10.38379,15.500005 9.999995,15.500005 Z" id="Shape" fill="#292934" fill-rule="nonzero"></path>
                        <path d="M3.82843,14.8995 L10.8995,7.82843 C11.29002,7.43791 11.29002,6.80474 10.8995,6.41422 L8.77818,4.2929 C8.38766,3.90238 7.75449,3.90238 7.36397,4.2929 L0.2929,11.36397 C-0.09762,11.75449 -0.09762,12.38766 0.2929,12.77818 L2.41422,14.8995 C2.80474,15.29002 3.4379,15.29002 3.82843,14.8995 Z" id="Shape" fill="#292934" fill-rule="nonzero"></path>
                        <path d="M22,18 C21.44727,18 21,17.55225 21,17 L21,15 C21,14.44775 21.44727,14 22,14 C22.55273,14 23,14.44775 23,15 L23,17 C23,17.55225 22.55273,18 22,18 Z" id="Shape" fill="#292934" fill-rule="nonzero"></path>
                        <path d="M32,28 C32,27.44727 32.44775,27 33,27 L35,27 C35.55225,27 36,27.44727 36,28 C36,28.55273 35.55225,29 35,29 L33,29 C32.44775,29 32,28.55273 32,28 Z" id="Shape" fill="#292934" fill-rule="nonzero"></path>
                        <path d="M22,38 C22.55273,38 23,38.44775 23,39 L23,41 C23,41.55225 22.55273,42 22,42 C21.44727,42 21,41.55225 21,41 L21,39 C21,38.44775 21.44727,38 22,38 Z" id="Shape" fill="#292934" fill-rule="nonzero"></path>
                        <path d="M12,28 C12,28.55273 11.55225,29 11,29 L9,29 C8.44775,29 8,28.55273 8,28 C8,27.44727 8.44775,27 9,27 L11,27 C11.55225,27 12,27.44727 12,28 Z" id="Shape" fill="#292934" fill-rule="nonzero"></path>
                    </g>
                </g>
            </g>
        </g>
    </g>
</svg>