<svg xmlns="http://www.w3.org/2000/svg" width="20" height="20" viewBox="0 0 20 20">
  <path fill="none" stroke="#676D72" stroke-width="1.667" d="M22.4166667,12 L22.4166667,8.25 C22.4166667,8.02000292 22.2299971,7.83333333 22,7.83333333 L8.25,7.83333333 C8.02000292,7.83333333 7.83333333,8.02000292 7.83333333,8.25 L7.83333333,12 C7.83333333,12.2299971 8.02000292,12.4166667 8.25,12.4166667 L22,12.4166667 C22.2299971,12.4166667 22.4166667,12.2299971 22.4166667,12 Z M25.3333333,10.5562335 L25.3333333,14.5 C25.3333333,15.6504717 24.4004717,16.5833333 23.25,16.5833333 L17,16.5833333 C16.0793779,16.5833333 15.3333333,17.3293779 15.3333333,18.25 L15.3333333,20.3333333 L14.5,20.3333333 C14.2700029,20.3333333 14.0833333,20.5200029 14.0833333,20.75 L14.0833333,25.75 C14.0833333,25.9799971 14.2700029,26.1666667 14.5,26.1666667 L17,26.1666667 C17.2299971,26.1666667 17.4166667,25.9799971 17.4166667,25.75 L17.4166667,20.75 C17.4166667,20.5200029 17.2299971,20.3333333 17,20.3333333 L16.1666667,20.3333333 L16.1666667,17.4166667 L23.25,17.4166667 C24.8608565,17.4166667 26.1666667,16.1108565 26.1666667,14.5 L26.1666667,12 C26.1666667,11.3829721 25.831538,10.8443657 25.3333333,10.5562335 Z" transform="translate(-7 -7)"/>
</svg>
