<svg xmlns="http://www.w3.org/2000/svg" width="46" height="46" viewBox="0 0 46 46">
    <g fill="#292934" fill-rule="evenodd">
        <path d="M2.002 10A2.001 2.001 0 0 0 0 12v32c0 1.1.898 2 2.002 2h41.996A2.001 2.001 0 0 0 46 44V12c0-1.1-.898-2-2.002-2H2.002z" opacity=".06"/>
        <path d="M5 21c0-.552.445-1 1-1h14c.552 0 1 .445 1 1v14c0 .552-.445 1-1 1H6c-.552 0-1-.445-1-1V21z" opacity=".5"/>
        <path d="M23 7a2 2 0 1 0 0-4 2 2 0 0 0 0 4zm5-2a5 5 0 0 0-10 0v8.002c0 .552.446.998.995.998h8.01c.54 0 .995-.447.995-.998V5z"/>
        <path d="M26 22c0-.552.45-1 1.007-1h11.986c.556 0 1.007.444 1.007 1 0 .552-.45 1-1.007 1H27.007A1.001 1.001 0 0 1 26 22zM26 28c0-.552.45-1 1.007-1h11.986c.556 0 1.007.444 1.007 1 0 .552-.45 1-1.007 1H27.007A1.001 1.001 0 0 1 26 28zM26 34c0-.552.438-1 1.003-1h4.994A.999.999 0 0 1 33 34c0 .552-.438 1-1.003 1h-4.994A.999.999 0 0 1 26 34z" opacity=".5"/>
    </g>
</svg>
