<?xml version="1.0" encoding="UTF-8"?>
<svg width="49px" height="47px" viewBox="0 0 49 47" version="1.1" xmlns="http://www.w3.org/2000/svg" xmlns:xlink="http://www.w3.org/1999/xlink">
    <!-- Generator: sketchtool 55.2 (78181) - https://sketchapp.com -->
    <title>610027DF-E89B-4096-9EB1-E1AF07050F9A</title>
    <desc>Created with sketchtool.</desc>
    <g id="Page-1" stroke="none" stroke-width="1" fill="none" fill-rule="evenodd">
        <g id="Wizard---Start-Date" transform="translate(-854.000000, -163.000000)" fill-rule="nonzero">
            <g id="Rows" transform="translate(854.000000, 128.000000)">
                <g id="Stacked-Group-3" transform="translate(0.000000, 35.000000)">
                    <g id="Icon---9">
                        <path d="M42.8433794,6.40909091 C42.8433794,5.22875 41.9081398,4.27272727 40.7534585,4.27272727 L2.08992095,4.27272727 C0.935239625,4.27272727 0,5.22875 0,6.40909091 L0,12.8181818 L42.8433794,12.8181818 L42.8433794,6.40909091 Z" id="Shape" fill="#E86C60"></path>
                        <path d="M42.8433794,44.8636364 L42.8433794,12.8181818 L0,12.8181818 L0,44.8636364 C0,46.0439773 0.935239625,47 2.08992095,47 L40.7534585,47 C41.9081398,47 42.8433794,46.0439773 42.8433794,44.8636364 Z" id="Shape" fill="#E6E6E6"></path>
                        <path d="M11.4945652,0 L9.40464427,0 C8.82678113,0 8.35968379,0.477477273 8.35968379,1.06818182 L8.35968379,7.47727273 C8.35968379,8.06797727 8.82678113,8.54545455 9.40464427,8.54545455 L11.4945652,8.54545455 C12.0724284,8.54545455 12.5395257,8.06797727 12.5395257,7.47727273 L12.5395257,1.06818182 C12.5395257,0.477477273 12.0724284,0 11.4945652,0 Z" id="Shape" fill="#444444"></path>
                        <path d="M33.4387352,8.54545455 L31.3488142,8.54545455 C30.771996,8.54545455 30.3038538,8.06690909 30.3038538,7.47727273 L30.3038538,1.06818182 C30.3038538,0.478545455 30.771996,0 31.3488142,0 L33.4387352,0 C34.0155534,0 34.4836957,0.478545455 34.4836957,1.06818182 L34.4836957,7.47727273 C34.4836957,8.06690909 34.0155534,8.54545455 33.4387352,8.54545455 Z" id="Shape" fill="#444444"></path>
                        <path d="M22.9891304,30.9772727 L39.708498,30.9772727 L39.708498,34.1818182 C39.708498,34.5962727 39.9436141,34.9733409 40.3103953,35.1495909 C40.6792663,35.3247727 41.1118799,35.2681591 41.4222332,35.0021818 L47.691996,29.6612727 C47.930247,29.4583182 48.0681818,29.1581591 48.0681818,28.8409091 C48.0681818,28.5236591 47.930247,28.2235 47.691996,28.0205455 L41.4222332,22.6796364 C41.2310054,22.5162045 40.9927544,22.4318182 40.7534585,22.4318182 C40.6029842,22.4318182 40.4514649,22.4649318 40.3103953,22.5332955 C39.9436141,22.7084773 39.708498,23.0855455 39.708498,23.5 L39.708498,26.7045455 L22.9891304,26.7045455 C22.4123123,26.7045455 21.94417,27.1830909 21.94417,27.7727273 L21.94417,29.9090909 C21.94417,30.4987273 22.4123123,30.9772727 22.9891304,30.9772727 Z" id="Shape" fill="#B3B3B3"></path>
                    </g>
                </g>
            </g>
        </g>
    </g>
</svg>