<svg xmlns="http://www.w3.org/2000/svg" width="22" height="22" viewBox="0 0 22 22">
  <path fill="none" stroke="#676D72" stroke-width="2" d="M24.8856598,18.4152681 L26.4459292,19.165161 C26.9135471,19.4240527 27.1172618,19.9730815 26.9320666,20.4640828 C26.5200073,21.5442858 25.7097784,22.5352159 24.9597379,23.4011637 C24.6171268,23.7984285 24.0245022,23.8966287 23.5568843,23.6377371 L22.2095894,22.8878441 C21.4688086,23.499364 20.607651,23.9859017 19.6677854,24.3028208 L19.6677854,25.8026068 C19.6677854,26.32039 19.2835054,26.7667549 18.7556992,26.8560279 C17.6167488,27.0435011 16.4222398,27.0524284 15.2416205,26.8560279 C14.7091843,26.7667549 14.3156446,26.3248537 14.3156446,25.8026068 L14.3156446,24.3028208 C13.375779,23.9814381 12.5146214,23.499364 11.7738407,22.8878441 L10.4265457,23.6332735 C9.96355771,23.8921651 9.36630324,23.7939648 9.02369215,23.3967001 C8.27365164,22.5307522 7.48194222,21.5398222 7.06988294,20.4640828 C6.88468775,19.9775451 7.08840246,19.4285163 7.5560203,19.165161 L9.09777022,18.4152681 C8.91720491,17.4823655 8.91720491,16.522681 9.09777022,15.5853147 L7.5560203,14.8309581 C7.08840246,14.5720665 6.88005787,14.0230377 7.06988294,13.5365 C7.48194222,12.456297 8.27365164,11.4653669 9.02369215,10.5994191 C9.36630324,10.2021543 9.95892783,10.1039541 10.4265457,10.3628457 L11.7738407,11.1127387 C12.5146214,10.5012188 13.375779,10.0146811 14.3156446,9.69776202 L14.3156446,8.19351238 C14.3156446,7.68019277 14.6952947,7.2338279 15.223101,7.14455492 C16.3620514,6.95708167 17.5611902,6.94815438 18.7418095,7.14009127 C19.2742457,7.22936425 19.6677854,7.67126548 19.6677854,8.19351238 L19.6677854,9.69329837 C20.607651,10.0146811 21.4688086,10.4967551 22.2095894,11.108275 L23.5568843,10.358382 C24.0198723,10.0994904 24.6171268,10.1976907 24.9597379,10.5949554 C25.7097784,11.4609033 26.4968579,12.4518333 26.9089172,13.5320363 C27.0941124,14.018574 26.9135471,14.5676028 26.4459292,14.8309581 L24.8856598,15.5808511 C25.0662251,16.5182173 25.0662251,17.4779018 24.8856598,18.4152681 Z M19.1936835,19.1936835 C21.6509411,15.9975883 18.0024117,12.3490589 14.8063165,14.8063165 C12.3490589,18.0024117 15.9975883,21.6509411 19.1936835,19.1936835 Z" transform="translate(-6 -6)"/>
</svg>
