<?xml version="1.0" encoding="UTF-8"?>
<svg width="46px" height="46px" viewBox="0 0 46 46" version="1.1" xmlns="http://www.w3.org/2000/svg" xmlns:xlink="http://www.w3.org/1999/xlink">
    <!-- Generator: sketchtool 55.2 (78181) - https://sketchapp.com -->
    <title>EDFC3D88-03AF-4AFC-BC43-05B346FEF9D1</title>
    <desc>Created with sketchtool.</desc>
    <g id="Page-1" stroke="none" stroke-width="1" fill="none" fill-rule="evenodd">
        <g id="Wizard---Location" transform="translate(-854.000000, -164.000000)" fill-rule="nonzero">
            <g id="Rows" transform="translate(854.000000, 128.000000)">
                <g id="Stacked-Group-3" transform="translate(0.000000, 35.000000)">
                    <g id="world" transform="translate(0.000000, 1.000000)">
                        <path d="M21,3 C21.17151,4.88641 24.79993,6.17535 26,8 C27.59924,10.43146 27,13.0000669 29,13.0000669 C30.05835,13.0000669 33.10052,13.07068 40.92822,8.61609 C36.70917,3.36792 30.24213,0 23,0 C22.48474,0 21.97504,0.02319 21.46808,0.0567 C21.18066,0.78534 20.88922,1.7818 21,3 Z" id="Shape" fill="#0AC297"></path>
                        <path d="M11,37 C12.14148,35.08734 13.09442,32.09174 11,29 C9.60718,26.94385 7,24.84161 7,23 C7,20.55249 12.94611,19.65594 15,17 C16.8158,14.65192 14.83496,10.49188 13.94293,8.99744 C13.03528,7.47675 10.93738,5.5271 9.50659,4.39093 C3.75153,8.5755 0,15.35614 0,23 C0,29.90411 3.06213,36.10272 7.89465,40.3222 C9.04144,39.34595 10.5437,37.76459 11,37 Z" id="Shape" fill="#0AC297"></path>
                        <path d="M40.92822,8.61609 C33.10052,13.07068 30.05835,13 29,13 C27,13 27.59924,10.43146 26,8 C24.79993,6.17535 21.17151,4.88641 21,3 C20.88922,1.7818 21.18066,0.78534 21.46808,0.0567 C17.01831,0.35107 12.91193,1.91485 9.50659,4.39093 C10.93738,5.5271 13.03528,7.47675 13.94293,8.99744 C14.83496,10.49188 16.8158,14.65192 15,17 C12.94611,19.65594 7,20.55249 7,23 C7,24.84161 9.60718,26.94385 11,29 C13.09442,32.09174 12.14148,35.08734 11,37 C10.5437,37.76459 9.04144,39.34595 7.89465,40.3222 C11.93896,43.85345 17.22198,46 23,46 C35.68213,46 46,35.68213 46,23 C46,17.56 44.09741,12.55829 40.92822,8.61609 Z M25,37 C22,35 25.5,32.33331 23.02838,24.80695 C21.99451,21.65863 26.16241,18.80695 30.02838,18.80695 C33.89441,18.80695 36.98364,21.49353 37.02838,24.80695 C37.11176,30.97357 28.66968,39.44641 25,37 Z" id="Shape" fill="#B2E1F3"></path>
                        <path d="M30.02838,18.80695 C26.16241,18.80695 21.99451,21.65863 23.02838,24.80695 C25.5,32.33331 22,35 25,37 C28.66968,39.44641 37.11176,30.97357 37.02838,24.80695 C36.98364,21.49353 33.89441,18.80695 30.02838,18.80695 Z" id="Shape" fill="#0AC297"></path>
                    </g>
                </g>
            </g>
        </g>
    </g>
</svg>