<?xml version="1.0" encoding="UTF-8"?>
<svg width="20px" height="18px" viewBox="0 0 20 18" version="1.1" xmlns="http://www.w3.org/2000/svg" xmlns:xlink="http://www.w3.org/1999/xlink">
    <!-- Generator: sketchtool 55.2 (78181) - https://sketchapp.com -->
    <title>4507E588-D4DD-4C9E-B1B0-5108AA9994A6</title>
    <desc>Created with sketchtool.</desc>
    <g id="Page-1" stroke="none" stroke-width="1" fill="none" fill-rule="evenodd">
        <g id="Playbooks---New-Playbook" transform="translate(-597.000000, -720.000000)" fill="#676D72" fill-rule="nonzero">
            <g id="Icons" transform="translate(481.000000, 616.000000)">
                <g id="icon3-copy-8" transform="translate(108.000000, 96.000000)">
                    <path d="M18.0012961,8 C12.4785745,8 8.00259217,11.740625 8.00259217,16.3571429 C8.00259217,18.2696429 8.77983517,20.0214286 10.0687306,21.4316964 C9.48677478,23.0147321 8.27599423,24.3566964 8.25646551,24.3727679 C7.99868643,24.6540179 7.92838304,25.0638393 8.0768013,25.4174107 C8.22521956,25.7709821 8.56501927,26 8.93997066,26 C11.3420031,26 13.2362888,24.9674107 14.3728602,24.1397321 C15.5016201,24.5053571 16.7202121,24.7142857 18.0012961,24.7142857 C23.5240177,24.7142857 28,20.9736607 28,16.3571429 C28,11.740625 23.5240177,8 18.0012961,8 Z M18.0012961,22.7857143 C16.9584625,22.7857143 15.9273462,22.6209821 14.939193,22.2995536 L14.0525892,22.0102679 L13.2909692,22.5647321 C12.7324478,22.9705357 11.966922,23.4245536 11.0451665,23.7299107 C11.3302858,23.24375 11.6075936,22.6973214 11.8224095,22.1147321 L12.2364184,20.9857143 L11.4318352,20.1098214 C10.7248955,19.334375 9.87734916,18.0526786 9.87734916,16.3571429 C9.87734916,12.8133929 13.521408,9.92857143 18.0012961,9.92857143 C22.4811841,9.92857143 26.125243,12.8133929 26.125243,16.3571429 C26.125243,19.9008929 22.4811841,22.7857143 18.0012961,22.7857143 Z" id="icon-social"></path>
                </g>
            </g>
        </g>
    </g>
</svg>