<svg xmlns="http://www.w3.org/2000/svg" width="20" height="15" viewBox="0 0 20 15">
  <path fill="#676D72" d="M25.4702408,21.859375 C26.4249874,20.9520089 26.9978353,19.8136161 26.9978353,18.5714286 C26.9978353,15.8928571 24.3419039,13.6796875 20.8805135,13.2845982 C19.7868947,11.3560268 17.2177584,10 14.2215899,10 C10.232485,10 7.00023383,12.3973214 7.00023383,15.3571429 C7.00023383,16.5959821 7.57308179,17.734375 8.52782839,18.6450893 C7.9966421,19.6729911 7.23284482,20.4698661 7.2189576,20.4832589 C7.00023383,20.7075893 6.93774133,21.0357143 7.06619814,21.3203125 C7.19118315,21.6049107 7.48281484,21.7890625 7.80222097,21.7890625 C9.65963709,21.7890625 11.1594572,21.1127232 12.1489219,20.4899554 C12.468328,20.5602679 12.7981495,20.6138393 13.1349147,20.6540179 C14.2250617,22.5758929 16.7837826,23.9285714 19.7764792,23.9285714 C20.4986148,23.9285714 21.192976,23.8482143 21.8526191,23.7008929 C22.8420838,24.3203125 24.3384321,25 26.19932,25 C26.5187261,25 26.806886,24.8158482 26.9353428,24.53125 C27.0603278,24.2466518 27.0013071,23.9185268 26.7825834,23.6941964 C26.7686962,23.6841518 26.0014271,22.8872768 25.4702408,21.859375 L25.4702408,21.859375 Z M11.8329875,18.7689732 L11.2393087,19.140625 C10.7497841,19.4453125 10.2498441,19.6863839 9.74296043,19.8571429 C9.83669918,19.6997768 9.93043794,19.5323661 10.0207049,19.3616071 L10.5588348,18.3203125 L9.69782695,17.5 C9.22913316,17.0513393 8.66670062,16.3180804 8.66670062,15.3571429 C8.66670062,13.3247768 11.2115343,11.6071429 14.2215899,11.6071429 C17.2316456,11.6071429 19.7764792,13.3247768 19.7764792,15.3571429 C19.7764792,17.3895089 17.2316456,19.1071429 14.2215899,19.1071429 C13.648742,19.1071429 13.075894,19.0435268 12.5204051,18.9196429 L11.8329875,18.7689732 Z M24.3002422,20.7142857 L23.4427062,21.53125 L23.9808361,22.5725446 C24.071103,22.7433036 24.1648418,22.9107143 24.2585805,23.0680804 C23.7516969,22.8973214 23.2517569,22.65625 22.7622322,22.3515625 L22.1685534,21.9799107 L21.4776641,22.1339286 C20.9221752,22.2578125 20.3493272,22.3214286 19.7764792,22.3214286 C17.9017041,22.3214286 16.2282937,21.6484375 15.2179982,20.6573661 C18.7349375,20.2957589 21.442946,18.0658482 21.442946,15.3571429 C21.442946,15.2433036 21.4290588,15.1328125 21.4186434,15.0223214 C23.6544863,15.5078125 25.3313685,16.9241071 25.3313685,18.5714286 C25.3313685,19.5323661 24.768936,20.265625 24.3002422,20.7142857 Z" transform="translate(-7 -10)"/>
</svg>
