<?xml version="1.0" encoding="UTF-8"?>
<svg width="20px" height="20px" viewBox="0 0 20 20" version="1.1" xmlns="http://www.w3.org/2000/svg" xmlns:xlink="http://www.w3.org/1999/xlink">
    <!-- Generator: sketchtool 55.2 (78181) - https://sketchapp.com -->
    <title>FC39BA77-5B8D-4656-A2A5-9D17CC02A7EA</title>
    <desc>Created with sketchtool.</desc>
    <g id="Page-1" stroke="none" stroke-width="1" fill="none" fill-rule="evenodd">
        <g id="Playbooks---New-Playbook" transform="translate(-812.000000, -665.000000)" fill="#676D72" fill-rule="nonzero">
            <g id="Icons" transform="translate(481.000000, 616.000000)">
                <g id="icon3-copy-3" transform="translate(324.000000, 42.000000)">
                    <g id="icon-consulting" transform="translate(7.000000, 7.000000)">
                        <path d="M7,12 C3.1,12 0,15.1 0,19 C0,19.6 0.4,20 1,20 L13,20 C13.6,20 14,19.6 14,19 C14,15.1 10.9,12 7,12 Z M2.1,18 C2.6,15.7 4.6,14 7,14 C9.4,14 11.4,15.7 11.9,18 L2.1,18 Z" id="Shape"></path>
                        <path d="M7,11 C9.2,11 11,9.2 11,7 C11,4.8 9.2,3 7,3 C4.8,3 3,4.8 3,7 C3,9.2 4.8,11 7,11 Z M7,5 C8.1,5 9,5.9 9,7 C9,8.1 8.1,9 7,9 C5.9,9 5,8.1 5,7 C5,5.9 5.9,5 7,5 Z" id="Shape"></path>
                        <path d="M19,0 L7,0 C6.5,0 6,0.4 6,1 C6,1.6 6.4,2 7,2 L18,2 L18,10 L16.3,10 C15.4,10.1 15.3,10.8 15.3,11.1 L15.5,12.5 L13.8,10.3 C13.6,10.1 13.3,10 13,10 L12,10 C11.4,10 11,10.4 11,11 C11,11.6 11.4,12 12,12 L12.5,12 L16.2,16.6 C16.7,17.1 17.2,16.9 17.4,16.9 C17.8,16.7 18.1,16.3 18,15.8 L17.5,12 L19,12 C19.6,12 20,11.6 20,11 L20,1 C20,0.4 19.6,0 19,0 Z" id="Shape"></path>
                    </g>
                </g>
            </g>
        </g>
    </g>
</svg>