<svg xmlns="http://www.w3.org/2000/svg" width="20" height="20" viewBox="0 0 20 20">
  <path fill="#676D72" d="M24.6716418,7 L21.9850746,9.68656716 L22.1044776,10.4029851 C20.4925373,9.14925373 18.5223881,8.37313433 16.3134328,8.37313433 C13.7462687,8.37313433 11.4179104,9.3880597 9.74626866,11.119403 C8.07462687,12.7910448 7,15.119403 7,17.6865672 C7,22.8208955 11.1791045,27 16.3134328,27 C18.880597,27 21.2089552,25.9850746 22.880597,24.2537313 C24.5522388,22.5820896 25.6268657,20.2537313 25.6268657,17.6865672 C25.6268657,16.1343284 25.2686567,14.7014925 24.6119403,13.4477612 C24.4328358,13.5074627 24.3134328,13.5074627 24.1343284,13.4477612 L24.0149254,13.4477612 L22.880597,14.5820896 C23.358209,15.5373134 23.5970149,16.6119403 23.5970149,17.7462687 C23.5970149,19.7761194 22.761194,21.5671642 21.4477612,22.880597 C20.1343284,24.1940299 18.2835821,25.0298507 16.3134328,25.0298507 C12.3134328,25.0298507 9.02985075,21.7462687 9.02985075,17.7462687 C9.02985075,15.7164179 9.86567164,13.9253731 11.1791045,12.6119403 C12.4925373,11.2985075 14.3432836,10.4626866 16.3134328,10.4626866 C17.9850746,10.4626866 19.5373134,11 20.7313433,11.9552239 L19.4776119,13.2089552 C18.5820896,12.5522388 17.5074627,12.1940299 16.3134328,12.1940299 C14.761194,12.1940299 13.3880597,12.7910448 12.4328358,13.8059701 C11.4179104,14.8208955 10.8208955,16.1940299 10.8208955,17.6865672 C10.8208955,20.7313433 13.2686567,23.1791045 16.3134328,23.1791045 C17.8656716,23.1791045 19.238806,22.5820896 20.1940299,21.5671642 C21.2089552,20.5522388 21.8059701,19.1791045 21.8059701,17.6865672 C21.8059701,17.0895522 21.6865672,16.4328358 21.5074627,15.8955224 L19.9552239,17.4477612 C19.9552239,17.5074627 19.9552239,17.5671642 19.9552239,17.6865672 C19.9552239,18.7014925 19.5373134,19.5970149 18.880597,20.2537313 C18.2238806,20.9104478 17.3283582,21.3283582 16.3134328,21.3283582 C14.2835821,21.3283582 12.6716418,19.7164179 12.6716418,17.6865672 C12.6716418,16.6716418 13.0895522,15.7761194 13.7462687,15.119403 C14.4029851,14.4626866 15.2985075,14.0447761 16.3134328,14.0447761 C16.9701493,14.0447761 17.6268657,14.2238806 18.1641791,14.5223881 L16.8507463,15.8358209 C16.6716418,15.7761194 16.4925373,15.7761194 16.3134328,15.7761194 C15.238806,15.7761194 14.4029851,16.6119403 14.4029851,17.6865672 C14.4029851,18.761194 15.238806,19.5970149 16.3134328,19.5970149 C17.3880597,19.5970149 18.2238806,18.761194 18.2238806,17.6865672 C18.2238806,17.5074627 18.2238806,17.3283582 18.1641791,17.1492537 L23.4776119,11.8358209 L24.3134328,11.9552239 L27,9.26865672 L24.9701493,8.97014925 L24.6716418,7 Z" transform="translate(-7 -7)"/>
</svg>
