<?xml version="1.0" encoding="UTF-8"?>
<svg width="44px" height="44px" viewBox="0 0 44 44" version="1.1" xmlns="http://www.w3.org/2000/svg" xmlns:xlink="http://www.w3.org/1999/xlink">
    <!-- Generator: sketchtool 55.2 (78181) - https://sketchapp.com -->
    <title>7C12BC54-C4E1-4862-9467-B4119151E01A</title>
    <desc>Created with sketchtool.</desc>
    <g id="Page-1" stroke="none" stroke-width="1" fill="none" fill-rule="evenodd">
        <g id="Wizard---Project-Type" transform="translate(-856.000000, -165.000000)" fill-rule="nonzero">
            <g id="Rows" transform="translate(854.000000, 128.000000)">
                <g id="Stacked-Group-3" transform="translate(0.000000, 35.000000)">
                    <g id="design" transform="translate(2.000000, 2.000000)">
                        <polygon id="Shape" fill="#292934" points="37.472 41.839 38.655 38.655 41.839 37.472 42.93 42.93"></polygon>
                        <polygon id="Shape" fill="#EAD8C5" points="31.162 40.577 33.655 33.364 40.577 31.162 41.839 37.472 37.472 41.839"></polygon>
                        <path d="M11.07,1.655 L16.363,6.948 L12.656,12.655 L6.949,16.362 L1.655,11.07 C0.874,10.289 0.874,9.023 1.655,8.242 L8.241,1.656 C9.022,0.874 10.289,0.874 11.07,1.655 Z" id="Shape" fill="#335262"></path>
                        <polygon id="Rectangle-path" fill="#F57059" transform="translate(25.615474, 21.909634) rotate(-45.000000) translate(-25.615474, -21.909634) " points="21.5800127 4.78779805 29.6509352 4.78779805 29.6509352 39.0314696 21.5800127 39.0314696"></polygon>
                        <rect id="Rectangle-path" fill="#D9523B" transform="translate(21.408274, 26.116173) rotate(-45.000000) translate(-21.408274, -26.116173) " x="18.0798059" y="8.99433745" width="6.65693616" height="34.2436716"></rect>
                        <rect id="Rectangle-path" fill="#E6E6E6" transform="translate(11.655408, 11.654693) rotate(-45.000000) translate(-11.655408, -11.654693) " x="4.99847194" y="10.6547025" width="13.3138723" height="1.99998082"></rect>
                        <path d="M43.213,10.686 L33.314,0.787 C32.533,0.006 31.267,0.006 30.486,0.787 L0.787,30.485 C0.006,31.266 0.006,32.532 0.787,33.313 L10.686,43.212 C11.467,43.993 12.733,43.993 13.514,43.212 L43.212,13.514 C43.994,12.734 43.994,11.467 43.213,10.686 Z" id="Shape" fill="#FFC106"></path>
                        <polygon id="Rectangle-path" fill="#292934" opacity="0.25" transform="translate(29.777896, 7.151248) rotate(-45.000000) translate(-29.777896, -7.151248) " points="28.7779055 3.15128666 30.7778863 3.15128666 30.7778863 11.1512099 28.7779055 11.1512099"></polygon>
                        <rect id="Rectangle-path" fill="#292934" opacity="0.25" transform="translate(23.060637, 11.746871) rotate(-45.000000) translate(-23.060637, -11.746871) " x="22.0606464" y="9.24689458" width="1.99998082" height="4.99995205"></rect>
                        <polygon id="Rectangle-path" fill="#292934" opacity="0.25" transform="translate(18.463489, 18.464500) rotate(-45.000000) translate(-18.463489, -18.464500) " points="17.4634984 14.4645384 19.4634792 14.4645384 19.4634792 22.4644616 17.4634984 22.4644616"></polygon>
                        <polygon id="Rectangle-path" fill="#292934" opacity="0.25" transform="translate(7.150496, 29.777752) rotate(-45.000000) translate(-7.150496, -29.777752) " points="6.15050549 25.7777901 8.15048631 25.7777901 8.15048631 33.7777133 6.15050549 33.7777133"></polygon>
                        <rect id="Rectangle-path" fill="#292934" opacity="0.25" transform="translate(11.746937, 23.060829) rotate(-45.000000) translate(-11.746937, -23.060829) " x="10.7469464" y="20.5608534" width="1.99998082" height="4.99995205"></rect>
                    </g>
                </g>
            </g>
        </g>
    </g>
</svg>