<svg xmlns="http://www.w3.org/2000/svg" width="15" height="20" viewBox="0 0 15 20">
  <path fill="#676D72" d="M24.4508203,10.8258203 L21.1741797,7.54917969 C20.822551,7.19754838 20.3456393,7 19.8483594,7 L11.875,7 C10.8394531,7 10,7.83945313 10,8.875 L10,25.125 C10,26.1605469 10.8394531,27 11.875,27 L23.125,27 C24.1605469,27 25,26.1605469 25,25.125 L25,12.1516406 C25,11.6543607 24.8024516,11.177449 24.4508203,10.8258203 L24.4508203,10.8258203 Z M22.9733594,12 L20,12 L20,9.02664063 L22.9733594,12 Z M11.875,25.125 L11.875,8.875 L18.125,8.875 L18.125,12.9375 C18.125,13.4552734 18.5447266,13.875 19.0625,13.875 L23.125,13.875 L23.125,25.125 L11.875,25.125 Z M15.8467578,20.6283203 L14.5646094,19.5 L15.8467187,18.3716797 C15.9166185,18.3102461 15.9585993,18.223079 15.963054,18.1301262 C15.9675088,18.0371734 15.9340561,17.9463912 15.8703516,17.8785547 L15.1905469,17.1533984 C15.0583594,17.0122656 14.8403906,17.0103516 14.7046875,17.1377344 L12.4523438,19.2492188 C12.3076953,19.3849219 12.3076562,19.6151172 12.4523828,19.7507813 L14.7046875,21.8623047 C14.7681953,21.9221973 14.8522368,21.9554812 14.9395312,21.9553145 C15.0346994,21.9556371 15.1256898,21.9162508 15.1905859,21.8466406 L15.8703906,21.1215234 C15.9340995,21.0536736 15.9675539,20.9628788 15.9630992,20.8699134 C15.9586446,20.7769479 15.9166622,20.6897678 15.8467578,20.6283203 L15.8467578,20.6283203 Z M19.1391016,15.6341797 L18.1859375,15.3574609 C18.0983791,15.3319946 18.0042886,15.342378 17.9243902,15.3863239 C17.8444918,15.4302699 17.7853391,15.5041738 17.7599609,15.5917578 L15.6265625,22.9398828 C15.5737109,23.1219141 15.6788281,23.3130078 15.8608594,23.3658594 L16.8141016,23.6425781 C16.9969141,23.6955078 17.1874219,23.5896875 17.2400781,23.4082813 L19.3733594,16.0601562 C19.42625,15.878125 19.3211328,15.6870312 19.1391016,15.6341797 L19.1391016,15.6341797 Z M22.5476172,19.2492188 L20.2953516,17.1376953 C20.1576172,17.0085156 19.9399219,17.0140625 19.8094531,17.1533594 L19.1296484,17.8784766 C19.0659521,17.9463247 19.0325055,18.0371109 19.03696,18.1300665 C19.0414145,18.2230222 19.083389,18.3101941 19.1532812,18.3716406 L20.4353906,19.5 L19.1532813,20.6283203 C19.0833815,20.6897539 19.0414007,20.776921 19.036946,20.8698738 C19.0324912,20.9628266 19.0659439,21.0536088 19.1296484,21.1214453 L19.8094531,21.8466016 C19.8717925,21.9131437 19.9580225,21.9521815 20.0491565,21.9551194 C20.1402905,21.9580573 20.2288558,21.9246544 20.2953516,21.8622656 L20.2953125,21.8622656 L22.5476563,19.7507422 C22.6923047,19.6150781 22.6923047,19.3848828 22.5476172,19.2492188 L22.5476172,19.2492188 Z" transform="translate(-10 -7)"/>
</svg>
