<?xml version="1.0" encoding="UTF-8"?>
<svg xmlns="http://www.w3.org/2000/svg" xmlns:xlink="http://www.w3.org/1999/xlink" width="50pt" height="50pt" viewBox="0 0 50 50" version="1.1">
<g id="surface1">
<path style=" stroke:none;fill-rule:evenodd;fill:#676D72;fill-opacity:1;" d="M 42.980469 1.320312 C 42.226562 2.046875 40.722656 3.527344 39.644531 4.609375 L 37.683594 6.578125 L 37.808594 7.640625 L 37.9375 8.707031 L 31.296875 15.382812 L 24.660156 22.054688 L 24.230469 21.984375 C 19.433594 21.1875 16.5625 27.203125 20.261719 30.304688 C 23.640625 33.140625 28.820312 30.167969 28.03125 25.847656 L 27.945312 25.394531 L 34.613281 18.730469 L 41.28125 12.0625 L 42.355469 12.191406 L 43.433594 12.316406 L 46.296875 9.4375 C 47.871094 7.851562 49.351562 6.339844 49.589844 6.070312 L 50.023438 5.589844 L 49.566406 5.523438 C 49.3125 5.492188 48.328125 5.355469 47.371094 5.226562 C 45.609375 4.988281 45.15625 4.917969 45.109375 4.871094 C 45.070312 4.832031 44.929688 3.890625 44.667969 1.914062 C 44.535156 0.902344 44.410156 0.0585938 44.390625 0.0390625 C 44.371094 0.015625 43.738281 0.59375 42.980469 1.320312 M 22.039062 3.320312 C 16.492188 3.714844 11.605469 5.773438 7.625 9.386719 C -1.964844 18.09375 -2.625 32.9375 6.15625 42.472656 C 16.753906 53.980469 35.425781 52.027344 43.433594 38.570312 C 47.53125 31.679688 47.777344 23.300781 44.09375 15.945312 L 43.648438 15.050781 L 39.882812 18.816406 L 40.191406 19.546875 C 42.578125 25.203125 41.953125 31.78125 38.550781 36.8125 C 35.824219 40.847656 31.84375 43.542969 27.039062 44.609375 C 25.328125 44.992188 21.5 44.992188 19.683594 44.613281 C 12.234375 43.054688 6.382812 36.9375 5.222656 29.488281 C 5.089844 28.65625 5.089844 24.640625 5.21875 23.832031 C 6.136719 18.128906 9.898438 12.960938 14.988281 10.414062 C 17.953125 8.929688 20.027344 8.441406 23.367188 8.445312 C 26.214844 8.445312 27.75 8.734375 30.304688 9.753906 L 31.199219 10.109375 L 33.027344 8.269531 C 34.03125 7.257812 34.847656 6.398438 34.835938 6.367188 C 34.792969 6.246094 32.796875 5.28125 31.605469 4.804688 C 28.980469 3.761719 24.859375 3.121094 22.039062 3.320312 M 21.863281 12.886719 C 15.59375 13.507812 10.15625 18.859375 9.59375 24.972656 C 9.117188 30.128906 10.847656 34.277344 14.847656 37.578125 C 18.433594 40.535156 23.992188 41.324219 28.46875 39.507812 C 35.039062 36.84375 38.425781 30.027344 36.679688 22.972656 C 36.601562 22.648438 36.511719 22.359375 36.484375 22.332031 C 36.453125 22.300781 35.726562 22.988281 34.492188 24.210938 L 32.550781 26.136719 L 32.550781 26.617188 C 32.550781 31.105469 28.996094 35.273438 24.742188 35.769531 C 21.035156 36.199219 17.6875 34.730469 15.691406 31.792969 C 11.59375 25.75 16.015625 17.460938 23.347656 17.449219 L 23.863281 17.449219 L 25.757812 15.539062 C 26.800781 14.484375 27.652344 13.59375 27.652344 13.554688 C 27.652344 13.464844 27.148438 13.320312 25.96875 13.074219 C 25.148438 12.902344 22.792969 12.796875 21.863281 12.886719 "/>
</g>
</svg>
