<?xml version="1.0" encoding="utf-8"?>
<!-- Generator: Adobe Illustrator 22.1.0, SVG Export Plug-In . SVG Version: 6.00 Build 0)  -->
<svg version="1.1" id="Layer_1" xmlns="http://www.w3.org/2000/svg" xmlns:xlink="http://www.w3.org/1999/xlink" x="0px" y="0px"
	 viewBox="0 0 16 16" style="enable-background:new 0 0 16 16;" xml:space="preserve">
<title>Mask</title>
<desc>Created with Sketch.</desc>
<g id="_x2D_--Symbols">
	<g id="Icon_x2F_Galaxy" transform="translate(-4.000000, -4.000000)">
		<g id="Mask">
			<path id="path-1_1_" d="M17.3,14.7c-0.6,0-1.2,0.2-1.7,0.6l-3-2.3V9.2c1.1-0.3,2-1.3,2-2.6C14.7,5.2,13.5,4,12,4S9.3,5.2,9.3,6.7
				c0,1.2,0.9,2.3,2,2.6V13l-3,2.3c-0.5-0.4-1-0.6-1.7-0.6c-1.5,0-2.7,1.2-2.7,2.7C4,18.8,5.2,20,6.7,20s2.7-1.2,2.7-2.7
				c0-0.4-0.1-0.7-0.2-1l2.9-2.2l2.9,2.2c-0.1,0.3-0.2,0.7-0.2,1c0,1.5,1.2,2.7,2.7,2.7c1.5,0,2.7-1.2,2.7-2.7
				C20,15.9,18.8,14.7,17.3,14.7z"/>
		</g>
	</g>
</g>
</svg>
