<svg xmlns="http://www.w3.org/2000/svg" width="20" height="15" viewBox="0 0 20 15">
  <path fill="#676D72" d="M25.125,10 L8.875,10 C7.83945313,10 7,10.8394531 7,11.875 L7,23.125 C7,24.1605469 7.83945313,25 8.875,25 L25.125,25 C26.1605469,25 27,24.1605469 27,23.125 L27,11.875 C27,10.8394531 26.1605469,10 25.125,10 Z M25.125,11.875 L25.125,13.4689453 C24.2491406,14.1821875 22.8528125,15.29125 19.8676953,17.6287109 C19.2098437,18.1461719 17.9067187,19.3893359 17,19.3748438 C16.0934375,19.3894922 14.7898828,18.1459766 14.1323047,17.6287109 C11.1476563,15.2916016 9.75097656,14.1823047 8.875,13.4689453 L8.875,11.875 L25.125,11.875 Z M8.875,23.125 L8.875,15.8749219 C9.77007812,16.5878516 11.0394141,17.5882813 12.9741406,19.1032813 C13.8279297,19.7753516 15.323125,21.2589844 17,21.2499609 C18.6686328,21.2589844 20.1448828,19.796875 21.0255078,19.1035938 C22.9601953,17.5886328 24.2298828,16.5879297 25.125,15.8749219 L25.125,23.125 L8.875,23.125 Z" transform="translate(-7 -10)"/>
</svg>
