<?xml version="1.0" encoding="UTF-8"?>
<svg width="40px" height="46px" viewBox="0 0 40 46" version="1.1" xmlns="http://www.w3.org/2000/svg" xmlns:xlink="http://www.w3.org/1999/xlink">
    <!-- Generator: sketchtool 55.2 (78181) - https://sketchapp.com -->
    <title>3E2C547E-85BD-4275-96B3-225947663470</title>
    <desc>Created with sketchtool.</desc>
    <g id="Page-1" stroke="none" stroke-width="1" fill="none" fill-rule="evenodd">
        <g id="Wizard---Experts" transform="translate(-856.000000, -163.000000)">
            <g id="Rows" transform="translate(854.000000, 128.000000)">
                <g id="Stacked-Group-3" transform="translate(0.000000, 35.000000)">
                    <g id="woman-24" transform="translate(2.000000, 0.000000)">
                        <path d="M6.85106383,40.1276596 L6.85106383,12.7234043 C6.85106383,5.69616992 12.5472337,0 19.5744681,0 C26.6017024,0 32.2978723,5.69616992 32.2978723,12.7234043 L32.2978723,40.1276596 L6.85106383,40.1276596 Z" id="Shape" fill="#444444"></path>
                        <rect id="Rectangle-path" fill="#EAC3A2" x="13.7021277" y="22.5106383" width="11.7446809" height="14.6808511"></rect>
                        <path d="M35.9025094,37.5262119 L25.4468085,32.2978723 C23.7947237,33.5212766 21.7726811,34.2553191 19.5744681,34.2553191 C17.376255,34.2553191 15.3542125,33.5212766 13.7197443,32.2978723 L3.24642543,37.5262119 C1.25668075,38.5205974 0,40.5543838 0,42.7780427 L0,45.0157996 C0,45.5593572 0.439660953,46 0.987311506,46 L38.1616192,46 C38.7069045,46 39.1489362,45.5654727 39.1489362,45.0157995 L39.1489362,42.7780427 C39.1489362,40.5543838 37.8922549,38.5205974 35.9025094,37.5262119 Z" id="Shape" fill="#5757B2"></path>
                        <path d="M8.80851064,15.6595745 L8.80851064,17.6170213 C8.80851064,23.5529792 13.638512,28.3829787 19.5744681,28.3829787 C25.5104242,28.3829787 30.3404255,23.5529792 30.3404255,17.6170213 L30.3404255,15.6595745 C30.3404255,14.0379758 29.0258558,12.7234043 27.4042553,12.7234043 C23.995431,12.7234043 21.0388626,10.7870594 19.5744681,7.95428193 C18.1100735,10.7870594 15.1535052,12.7234043 11.7446809,12.7234043 C10.1230831,12.7234043 8.80851064,14.0379758 8.80851064,15.6595745 Z" id="Shape" fill="#F1D9C5"></path>
                        <path d="M11.2908027,33.5104045 L13.1961592,37.9123899 C13.446754,38.5248089 14.2202226,38.7172203 14.7285208,38.2935687 L19.5744681,34.2553191 C17.376283,34.2553191 15.3542013,33.5212766 13.71975,32.2978723 L11.2908027,33.5104045 Z" id="Shape" fill="#FFFFFF" fill-rule="nonzero"></path>
                        <path d="M25.4468085,32.2978723 C23.7947349,33.5212766 21.7727129,34.2553191 19.5744681,34.2553191 L24.4204751,38.2936284 C24.9287732,38.7172202 25.7022419,38.5248089 25.9528367,37.9124496 L27.8605828,33.504849 L25.4468085,32.2978723 Z" id="Shape" fill="#FFFFFF" fill-rule="nonzero"></path>
                    </g>
                </g>
            </g>
        </g>
    </g>
</svg>