<svg xmlns="http://www.w3.org/2000/svg" width="18" height="20" viewBox="0 0 18 20">
  <path fill="#676D72" d="M25.8720385,18.7827734 C25.9902197,18.5819655 26.0282755,18.3459022 25.9789535,18.1195703 C25.8694671,17.6130859 25.3626558,17.2896875 24.846965,17.3972266 L21.3350847,18.3755859 L18.6071266,17 L21.3350847,15.6244141 L24.846965,16.6027734 C25.3626558,16.7103125 25.8694671,16.3869141 25.9789535,15.8804297 C26.0884398,15.3739453 25.759137,14.8762109 25.2434864,14.7686719 L23.3359328,14.4898828 L25.4684859,13.2806641 C25.925034,13.0217969 26.0814889,12.4483984 25.8178779,12 C25.5542669,11.5516016 24.9704736,11.3979688 24.5139256,11.6568359 L22.3813724,12.8660547 L23.0893574,11.1041797 C23.2523615,10.6117578 22.9781434,10.0828516 22.4767562,9.92273437 C21.9754091,9.76261719 21.4368166,10.0319922 21.2738125,10.524375 L20.3805645,14.0005469 L17.954588,15.3761328 L17.954588,12.625 L20.5732203,10.1271484 C20.925907,9.74230469 20.8941259,9.14953125 20.5022652,8.80316406 C20.1104044,8.45679688 19.5068433,8.48800781 19.1541968,8.87285156 L17.954588,10.3559375 L17.954588,7.9375 C17.954588,7.41972656 17.5272095,7 17.0000277,7 C16.4728458,7 16.0454673,7.41972656 16.0454673,7.9375 L16.0454673,10.3559375 L14.8458585,8.87285156 C14.4931316,8.48800781 13.8896509,8.45675781 13.4977902,8.80316406 C13.1059295,9.14953125 13.0741885,9.74230469 13.426835,10.1271484 L16.0454272,12.625 L16.0454272,15.3762109 L13.6194506,14.000625 L12.7262026,10.5244531 C12.5631986,10.0320703 12.024606,9.76269531 11.523259,9.9228125 C11.0219119,10.0829297 10.7476536,10.611875 10.9106577,11.1042578 L11.6186025,12.8661328 L9.48604937,11.6569141 C9.02950131,11.3980469 8.44570801,11.5516797 8.18209701,12.0000781 C7.918486,12.4484766 8.074941,13.0218359 8.53148906,13.2807422 L10.6640422,14.4899609 L8.75648854,14.76875 C8.24079776,14.8763281 7.91149495,15.3740234 8.02102148,15.8805078 C8.13050784,16.3869531 8.63731918,16.7103906 9.15300996,16.6028516 L12.6648903,15.6244922 L15.3928483,17 L12.6648903,18.3755859 L9.15305013,17.3972656 C8.63735935,17.2897266 8.13054802,17.613125 8.02106166,18.1196094 C7.91157531,18.6261328 8.24083794,19.1238281 8.75652872,19.2313672 L10.6640824,19.5101563 L8.53152924,20.719375 C8.07498118,20.9782422 7.91856636,21.5516016 8.18213718,22 C8.44570801,22.4483984 9.02954149,22.6020312 9.48608955,22.3431641 L11.6186427,21.1339453 L10.9106979,22.8958203 C10.8266853,23.1486285 10.8561805,23.4241561 10.9919388,23.6547266 C11.105684,23.8482031 11.2899024,24.0027344 11.523259,24.0772266 C12.024606,24.2373438 12.5631986,23.9679688 12.7262026,23.4755859 L13.6194506,19.9994141 L16.0454272,18.6238281 L16.0454272,21.375 L13.4267948,23.8728516 C13.0741081,24.2576953 13.1058893,24.8504687 13.49775,25.1968359 C13.8896509,25.5432422 14.4931316,25.5119922 14.8458183,25.1271484 L16.0454272,23.6440625 L16.0454272,26.0625 C16.0454272,26.5802734 16.4728057,27 16.9999875,27 C17.5271693,27 17.9545478,26.5802734 17.9545478,26.0625 L17.9545478,23.6440625 L19.1541566,25.1271484 C19.3341514,25.3246338 19.5925883,25.4376269 19.8639898,25.4375 C20.1001848,25.4375937 20.3278638,25.3517411 20.502225,25.1968359 C20.8940857,24.8504687 20.9258669,24.2576953 20.5731802,23.8728516 L17.9545478,21.375 L17.9545478,18.6237891 L20.3805244,19.999375 L21.2737723,23.4755469 C21.4367764,23.9679297 21.9753689,24.2373047 22.476716,24.0771875 C22.9781032,23.9170703 23.2523213,23.388125 23.0893172,22.8957422 L22.3813323,21.1338672 L24.5138854,22.3430859 C24.9704335,22.6019531 25.5542268,22.4483203 25.8178378,21.9999219 C26.0814488,21.5515234 25.9249938,20.9781641 25.4684457,20.7192578 L23.3358926,19.5100391 L25.2434462,19.23125 C25.5190706,19.1738672 25.7414183,19.0049609 25.8720385,18.7827734 Z" transform="translate(-8 -7)"/>
</svg>
