<?xml version="1.0" encoding="UTF-8"?>
<svg width="16px" height="22px" viewBox="0 0 16 22" version="1.1" xmlns="http://www.w3.org/2000/svg" xmlns:xlink="http://www.w3.org/1999/xlink">
    <!-- Generator: sketchtool 55.2 (78181) - https://sketchapp.com -->
    <title>2CBCCDBA-AB7D-4976-BDA0-1F2FEACC6A55@2x</title>
    <desc>Created with sketchtool.</desc>
    <g id="Page-1" stroke="none" stroke-width="1" fill="none" fill-rule="evenodd">
        <g id="Playbooks---New-Playbook" transform="translate(-760.000000, -664.000000)" fill-rule="nonzero">
            <g id="Icons" transform="translate(481.000000, 616.000000)">
                <g id="icon3-copy-2" transform="translate(270.000000, 42.000000)">
                    <g id="drip" transform="translate(10.000000, 7.000000)">
                        <path d="M8.16215909,0.862903979 C7.84636364,-0.261313986 6.19579545,-0.3136577 5.83784091,0.862903979 C3.97767045,7.02539968 0,8.70000789 0,13.0433642 C0,16.888674 3.13090909,20 7,20 C10.8690909,20 14,16.888674 14,13.0433642 C14,8.6781329 10.0310795,7.05352466 8.16215909,0.862903979 Z" id="Shape" stroke="#676D72" stroke-width="1.66666667"></path>
                        <path d="M7.375,18 C4.96289062,18 3,16.0371094 3,13.625 C3,13.2796875 3.2796875,13 3.625,13 C3.9703125,13 4.25,13.2796875 4.25,13.625 C4.25,15.3480469 5.65195312,16.75 7.375,16.75 C7.7203125,16.75 8,17.0296875 8,17.375 C8,17.7203125 7.7203125,18 7.375,18 Z" id="Path" fill="#676D72"></path>
                    </g>
                </g>
            </g>
        </g>
    </g>
</svg>