<svg xmlns="http://www.w3.org/2000/svg" width="24" height="21" viewBox="0 0 24 21">
  <path d="M20.133,4.317 C21.013,5.198 21.452,6.348 21.452,7.501 C21.452,8.654 21.012,9.804 20.133,10.683 L12,18.816 L3.867,10.683 C2.988,9.804 2.549,8.654 2.549,7.5 C2.549,6.346 2.988,5.196 3.867,4.317 C4.746,3.438 5.896,2.999 7.05,2.999 C8.204,2.999 9.354,3.438 10.233,4.317 L11.293,5.377 C11.684,5.768 12.317,5.768 12.707,5.377 L13.769,4.315 C14.648,3.436 15.798,2.997 16.951,2.9979983 C18.104,2.999 19.254,3.438 20.133,4.317 L20.133,4.317 Z M21.547,2.903 C20.278,1.634 18.613,0.999 16.951,0.997998821 C15.289,0.997 13.624,1.632 12.354,2.901 L12,3.256 L11.647,2.903 C10.378,1.634 8.712,0.999 7.05,0.999 C5.388,0.999 3.722,1.634 2.453,2.903 C1.184,4.172 0.549,5.838 0.549,7.5 C0.549,9.162 1.184,10.828 2.453,12.097 L11.293,20.937 C11.684,21.328 12.317,21.328 12.707,20.937 L21.547,12.097 C22.816,10.828 23.451,9.163 23.4520012,7.501 C23.453,5.839 22.818,4.174 21.547,2.903 Z" transform="translate(0 -1)"/>
</svg>
