<svg xmlns="http://www.w3.org/2000/svg" width="24" height="20" viewBox="0 0 24 20">
  <path fill="#292934" d="M18,19 L18,17 C18,15.62 17.439,14.368 16.536,13.464 C15.633,12.56 14.38,12 13,12 L5,12 C3.62,12 2.368,12.561 1.464,13.464 C0.56,14.367 0,15.62 0,17 L0,19 C0,19.552 0.448,20 1,20 C1.552,20 2,19.552 2,19 L2,17 C2,16.171 2.335,15.423 2.879,14.879 C3.423,14.335 4.171,14 5,14 L13,14 C13.829,14 14.577,14.335 15.121,14.879 C15.665,15.423 16,16.171 16,17 L16,19 C16,19.552 16.448,20 17,20 C17.552,20 18,19.552 18,19 Z M14,5 C14,3.62 13.439,2.368 12.536,1.464 C11.633,0.56 10.38,0 9,0 C7.62,0 6.368,0.561 5.464,1.464 C4.56,2.367 4,3.62 4,5 C4,6.38 4.561,7.632 5.464,8.536 C6.367,9.44 7.62,10 9,10 C10.38,10 11.632,9.439 12.536,8.536 C13.44,7.633 14,6.38 14,5 Z M12,5 C12,5.829 11.665,6.577 11.121,7.121 C10.577,7.665 9.829,8 9,8 C8.171,8 7.423,7.665 6.879,7.121 C6.335,6.577 6,5.829 6,5 C6,4.171 6.335,3.423 6.879,2.879 C7.423,2.335 8.171,2 9,2 C9.829,2 10.577,2.335 11.121,2.879 C11.665,3.423 12,4.171 12,5 Z M24,19 L24,17 C23.999,15.755 23.543,14.615 22.784,13.739 C22.132,12.986 21.256,12.428 20.255,12.163 C19.721,12.022 19.174,12.34 19.033,12.874 C18.892,13.408 19.21,13.955 19.744,14.096 C20.351,14.257 20.88,14.594 21.272,15.048 C21.727,15.574 21.999,16.254 22,17 L22,19 C22,19.552 22.448,20 23,20 C23.552,20 24,19.552 24,19 L24,19 Z M15.752,2.099 C16.555,2.305 17.197,2.814 17.589,3.476 C17.981,4.138 18.12,4.946 17.914,5.749 C17.738,6.436 17.339,7.005 16.809,7.401 C16.495,7.636 16.134,7.811 15.746,7.912 C15.212,8.052 14.892,8.599 15.033,9.133 C15.174,9.667 15.72,9.987 16.254,9.846 C16.891,9.679 17.486,9.391 18.007,9.002 C18.89,8.342 19.559,7.389 19.852,6.244 C20.194,4.907 19.962,3.555 19.31,2.456 C18.658,1.357 17.585,0.503 16.248,0.16 C15.713,0.023 15.168,0.346 15.031,0.881 C14.894,1.416 15.217,1.961 15.752,2.098 L15.752,2.099 Z"/>
</svg>
