<svg xmlns="http://www.w3.org/2000/svg" width="22" height="20" viewBox="0 0 22 20">
  <path fill="#292934" d="M8,4 L8,3 C8,2.724 8.111,2.475 8.293,2.293 C8.475,2.111 8.724,2 9,2 L13,2 C13.276,2 13.525,2.111 13.707,2.293 C13.889,2.475 14,2.724 14,3 L14,4 L8,4 Z M8,18 L8,6 L14,6 L14,18 L8,18 Z M6,6 L6,18 L3,18 C2.724,18 2.475,17.889 2.293,17.707 C2.111,17.525 2,17.276 2,17 L2,7 C2,6.724 2.111,6.475 2.293,6.293 C2.475,6.111 2.724,6 3,6 L6,6 Z M16,4 L16,3 C16,2.172 15.663,1.42 15.121,0.879 C14.579,0.338 13.828,0 13,0 L9,0 C8.172,0 7.42,0.337 6.879,0.879 C6.338,1.421 6,2.172 6,3 L6,4 L3,4 C2.172,4 1.42,4.337 0.879,4.879 C0.338,5.421 0,6.172 0,7 L0,17 C0,17.828 0.337,18.58 0.879,19.121 C1.421,19.662 2.172,20 3,20 L19,20 C19.828,20 20.58,19.663 21.121,19.121 C21.662,18.579 22,17.828 22,17 L22,7 C22,6.172 21.663,5.42 21.121,4.879 C20.579,4.338 19.828,4 19,4 L16,4 Z M16,18 L16,6 L19,6 C19.276,6 19.525,6.111 19.707,6.293 C19.889,6.475 20,6.724 20,7 L20,17 C20,17.276 19.889,17.525 19.707,17.707 C19.525,17.889 19.276,18 19,18 L16,18 Z"/>
</svg>
