<svg xmlns="http://www.w3.org/2000/svg" width="24" height="20" viewBox="0 0 24 20">
  <path fill="#292934" d="M4,8 L20,8 L20,19 L4,19 L4,8 Z M1,1 C0.448,1 0,1.448 0,2 L0,7 C0,7.552 0.448,8 1,8 L2,8 L2,20 C2,20.552 2.448,21 3,21 L21,21 C21.552,21 22,20.552 22,20 L22,8 L23,8 C23.552,8 24,7.552 24,7 L24,2 C24,1.448 23.552,1 23,1 L1,1 Z M2,3 L22,3 L22,6 L2,6 L2,3 Z M10,12 L14,12 C14.552,12 15,11.552 15,11 C15,10.448 14.552,10 14,10 L10,10 C9.448,10 9,10.448 9,11 C9,11.552 9.448,12 10,12 Z M10,16 L14,16 C14.552,16 15,15.552 15,15 C15,14.448 14.552,14 14,14 L10,14 C9.448,14 9,14.448 9,15 C9,15.552 9.448,16 10,16 Z" transform="matrix(1 0 0 -1 0 21)"/>
</svg>
