<svg xmlns="http://www.w3.org/2000/svg" width="20" height="22" viewBox="0 0 20 22">
  <path fill="#292934" d="M159,12 C159,16.011 159.947,18.52 160.851,20 L147.149,20 C148.053,18.52 149,16.011 149,12 C149,10.619 149.559,9.37 150.464,8.464 C151.369,7.558 152.619,7 154,7 C155.381,7 156.63,7.559 157.536,8.464 C158.442,9.369 159,10.619 159,12 L159,12 Z M161,12 C161,10.067 160.215,8.316 158.95,7.05 C157.685,5.784 155.933,5 154,5 C152.067,5 150.316,5.785 149.05,7.05 C147.784,8.315 147,10.067 147,12 C147,18.127 144.607,20.047 144.437,20.174 C143.984,20.482 143.864,21.098 144.168,21.555 C144.36,21.842 144.674,21.998 145,22 L163,22 C163.552,22 164,21.552 164,21 C164,20.661 163.832,20.362 163.571,20.179 C163.395,20.049 161,18.129 161,12 Z M154.865,24.498 C154.726,24.737 154.506,24.897 154.257,24.963 C154.008,25.029 153.737,25 153.498,24.862 C153.336,24.768 153.215,24.64 153.139,24.505 C152.865,24.025 152.255,23.858 151.775,24.132 C151.295,24.406 151.128,25.016 151.402,25.496 C151.652,25.935 152.025,26.319 152.495,26.592 C153.211,27.008 154.03,27.093 154.771,26.896 C155.512,26.699 156.18,26.218 156.595,25.502 C156.872,25.024 156.709,24.412 156.232,24.135 C155.755,23.858 155.142,24.021 154.865,24.498 L154.865,24.498 Z" transform="translate(-144 -5)"/>
</svg>
