<svg xmlns="http://www.w3.org/2000/svg" width="18" height="22" viewBox="0 0 18 22">
  <path fill="#292934" d="M10,0 L3,0 C2.172,0 1.42,0.337 0.879,0.879 C0.338,1.421 0,2.172 0,3 L0,19 C0,19.828 0.337,20.58 0.879,21.121 C1.421,21.662 2.172,22 3,22 L15,22 C15.828,22 16.58,21.663 17.121,21.121 C17.662,20.579 18,19.828 18,19 L18,8 C18,7.724 17.888,7.474 17.707,7.293 L10.707,0.293 C10.611,0.197 10.501,0.125 10.383,0.076 C10.261,0.025 10.13,0 10,0 Z M14.586,7 L11,7 L11,3.414 L14.586,7 Z M9,2 L9,8 C9,8.552 9.448,9 10,9 L16,9 L16,19 C16,19.276 15.889,19.525 15.707,19.707 C15.525,19.889 15.276,20 15,20 L3,20 C2.724,20 2.475,19.889 2.293,19.707 C2.111,19.525 2,19.276 2,19 L2,3 C2,2.724 2.111,2.475 2.293,2.293 C2.475,2.111 2.724,2 3,2 L9,2 Z"/>
</svg>
