<svg xmlns="http://www.w3.org/2000/svg" width="14" height="24" viewBox="0 0 14 24">
  <path fill="#292934" d="M6,11 L4.5,11 C3.809,11 3.186,10.721 2.732,10.268 C2.278,9.815 2,9.191 2,8.5 C2,7.809 2.279,7.186 2.732,6.732 C3.185,6.278 3.809,6 4.5,6 L6,6 L6,11 Z M8,13 L9.5,13 C10.191,13 10.814,13.279 11.268,13.732 C11.722,14.185 12,14.809 12,15.5 C12,16.191 11.721,16.814 11.268,17.268 C10.815,17.722 10.191,18 9.5,18 L8,18 L8,13 Z M12,4 L8,4 L8,1 C8,0.448 7.552,0 7,0 C6.448,0 6,0.448 6,1 L6,4 L4.5,4 C3.258,4 2.131,4.505 1.318,5.318 C0.505,6.131 0,7.258 0,8.5 C0,9.742 0.505,10.869 1.318,11.682 C2.131,12.495 3.258,13 4.5,13 L6,13 L6,18 L1,18 C0.448,18 0,18.448 0,19 C0,19.552 0.448,20 1,20 L6,20 L6,23 C6,23.552 6.448,24 7,24 C7.552,24 8,23.552 8,23 L8,20 L9.5,20 C10.742,20 11.869,19.495 12.682,18.682 C13.495,17.869 14,16.742 14,15.5 C14,14.258 13.495,13.131 12.682,12.318 C11.869,11.505 10.742,11 9.5,11 L8,11 L8,6 L12,6 C12.552,6 13,5.552 13,5 C13,4.448 12.552,4 12,4 Z"/>
</svg>
