<svg xmlns="http://www.w3.org/2000/svg" width="22" height="22" viewBox="0 0 22 22">
  <path fill="#292934" d="M17.11125,14.8 C17.18025,14.747 17.24125,14.685 17.29425,14.616 L19.94725,11.955 C21.31425,10.588 21.99825,8.794 21.99825,7.003 C21.99825,5.212 21.31425,3.418 19.94725,2.051 C18.58025,0.684 16.78625,0 14.99525,0 C13.20425,0 11.41025,0.684 10.04325,2.051 L3.29325,8.801 C3.09825,8.996 3.00025,9.252 3.00025,9.508 L3.00025,17.594 L0.29325,20.301 C-0.09775,20.692 -0.09775,21.325 0.29325,21.715 C0.68425,22.105 1.31725,22.106 1.70725,21.715 L4.41425,19.008 L12.50025,19.008 C12.77725,19.008 13.02725,18.896 13.20825,18.714 L17.11125,14.8 Z M8.41425,15.008 L14.07925,15.008 L12.08525,17.008 L6.41425,17.008 L8.41425,15.008 Z M16.07325,13.008 L10.41425,13.008 L15.70725,7.715 C16.09825,7.324 16.09825,6.691 15.70725,6.301 C15.31625,5.911 14.68325,5.91 14.29325,6.301 L5.00025,15.594 L5.00025,9.922 L11.45725,3.465 C12.43425,2.488 13.71325,2 14.99525,2 C16.27725,2 17.55625,2.488 18.53325,3.465 C19.51025,4.442 19.99825,5.721 19.99825,7.003 C19.99825,8.285 19.51025,9.564 18.53325,10.541 L16.07325,13.008 Z"/>
</svg>
