<svg xmlns="http://www.w3.org/2000/svg" width="22" height="22" viewBox="0 0 22 22">
  <path fill="#292934" d="M11.0008441,2.11878322 L18.7648441,6.00078322 L11.0008441,9.88278322 L3.2368441,6.00078322 L11.0008441,2.11878322 Z M10.5538441,0.106783224 L0.553844104,5.10678322 C0.0598441041,5.35378322 -0.140155896,5.95378322 0.106844104,6.44778322 C0.207844104,6.65078322 0.367844104,6.80378322 0.553844104,6.89478322 L10.5538441,11.8947832 C10.8458441,12.0407832 11.1738441,12.0307832 11.4478441,11.8947832 L21.4478441,6.89478322 C21.9418441,6.64778322 22.1418441,6.04678322 21.8948441,5.55278322 C21.7938441,5.35078322 21.6328441,5.19778322 21.4478441,5.10578322 L11.4478441,0.105783224 C11.1558441,-0.0402167762 10.8278441,-0.0302167762 10.5538441,0.105783224 L10.5538441,0.106783224 Z M0.553844104,16.8947832 L10.5538441,21.8947832 C10.8458441,22.0407832 11.1738441,22.0307832 11.4478441,21.8947832 L21.4478441,16.8947832 C21.9418441,16.6477832 22.1418441,16.0467832 21.8948441,15.5527832 C21.6478441,15.0587832 21.0468441,14.8587832 20.5528441,15.1057832 L11.0008441,19.8827832 L1.4478441,15.1067832 C0.953844104,14.8597832 0.352844104,15.0597832 0.105844104,15.5537832 C-0.141155896,16.0477832 0.0588441041,16.6487832 0.552844104,16.8957832 L0.553844104,16.8947832 Z M0.553844104,11.8947832 L10.5538441,16.8947832 C10.8458441,17.0407832 11.1738441,17.0307832 11.4478441,16.8947832 L21.4478441,11.8947832 C21.9418441,11.6477832 22.1418441,11.0467832 21.8948441,10.5527832 C21.6478441,10.0587832 21.0468441,9.85878322 20.5528441,10.1057832 L11.0008441,14.8827832 L1.4478441,10.1067832 C0.953844104,9.85978322 0.352844104,10.0597832 0.105844104,10.5537832 C-0.141155896,11.0477832 0.0588441041,11.6487832 0.552844104,11.8957832 L0.553844104,11.8947832 Z"/>
</svg>
